<svg width="205" height="43" viewBox="0 0 205 43" fill="none" xmlns="http://www.w3.org/2000/svg">
<rect width="16.833" height="16.833" transform="matrix(-0.866025 -0.5 1.09453e-07 -1 43.8572 33.666)" fill="#FFC531"/>
<rect width="16.833" height="16.833" transform="matrix(-0.866025 -0.5 0.866025 -0.5 29.2793 42.0825)" fill="#76B5FF"/>
<rect width="16.833" height="16.833" transform="matrix(0.866025 0.5 -2.20305e-08 1 0.123535 8.4165)" fill="#FFC531"/>
<rect width="16.833" height="16.833" transform="matrix(0.866025 0.5 -0.866025 0.5 14.7014 0)" fill="#76B5FF"/>
<path d="M57.784 8.016H62.52L69.304 20.432L76.12 8.016H80.824V30H76.12V16.304L69.304 28.72L62.52 16.304V30H57.784V8.016ZM93.737 30.384C92.1157 30.384 90.6117 30 89.225 29.232C87.8383 28.4427 86.7397 27.3867 85.929 26.064C85.1183 24.72 84.713 23.2693 84.713 21.712C84.713 20.1547 85.1183 18.7147 85.929 17.392C86.7397 16.0693 87.8383 15.024 89.225 14.256C90.6117 13.4667 92.1157 13.072 93.737 13.072C95.3583 13.072 96.8623 13.4667 98.249 14.256C99.6357 15.024 100.734 16.0693 101.545 17.392C102.356 18.7147 102.761 20.1547 102.761 21.712C102.761 23.2693 102.356 24.72 101.545 26.064C100.734 27.3867 99.6357 28.4427 98.249 29.232C96.8623 30 95.3583 30.384 93.737 30.384ZM93.737 26.448C94.5477 26.448 95.2943 26.2347 95.977 25.808C96.681 25.3813 97.2357 24.8053 97.641 24.08C98.0463 23.3547 98.249 22.5653 98.249 21.712C98.249 20.8587 98.0463 20.08 97.641 19.376C97.2357 18.6507 96.681 18.0747 95.977 17.648C95.2943 17.2213 94.5477 17.008 93.737 17.008C92.9263 17.008 92.169 17.2213 91.465 17.648C90.761 18.0747 90.2063 18.6507 89.801 19.376C89.3957 20.08 89.193 20.8587 89.193 21.712C89.193 22.5653 89.3957 23.3547 89.801 24.08C90.2063 24.8053 90.761 25.3813 91.465 25.808C92.169 26.2347 92.9263 26.448 93.737 26.448ZM104.197 13.456H109.061L113.509 24.624L117.861 13.456H122.757L115.685 30H111.333L104.197 13.456ZM132.918 26.768C133.686 26.768 134.454 26.6187 135.222 26.32C136.011 26.0213 136.672 25.6267 137.206 25.136L139.83 27.824C139.104 28.592 138.102 29.2107 136.822 29.68C135.563 30.1493 134.315 30.384 133.078 30.384C131.456 30.384 129.963 30.0107 128.598 29.264C127.254 28.5173 126.187 27.4827 125.398 26.16C124.63 24.8373 124.246 23.344 124.246 21.68C124.246 20.0373 124.619 18.5653 125.366 17.264C126.134 15.9627 127.168 14.9387 128.47 14.192C129.771 13.4453 131.222 13.072 132.822 13.072C134.528 13.072 136.011 13.4667 137.27 14.256C138.528 15.0453 139.488 16.1867 140.15 17.68C140.811 19.1733 141.142 20.9333 141.142 22.96H128.694C128.907 24.112 129.387 25.04 130.134 25.744C130.88 26.4267 131.808 26.768 132.918 26.768ZM132.886 16.688C131.862 16.688 130.976 17.008 130.23 17.648C129.483 18.2667 128.982 19.1093 128.726 20.176H136.662C136.47 19.1093 136.043 18.2667 135.382 17.648C134.72 17.008 133.888 16.688 132.886 16.688ZM148.975 16.56C149.529 15.472 150.297 14.6187 151.279 14C152.281 13.3813 153.401 13.072 154.639 13.072V17.008C152.911 17.008 151.535 17.4667 150.51 18.384C149.487 19.3013 148.975 20.5387 148.975 22.096V30H144.303V13.456H148.975V16.56ZM164.101 30.384C162.757 30.384 161.423 30.1707 160.101 29.744C158.778 29.296 157.626 28.6773 156.645 27.888L158.533 24.944C159.386 25.5627 160.314 26.0533 161.317 26.416C162.341 26.7787 163.301 26.96 164.197 26.96C164.965 26.96 165.551 26.832 165.957 26.576C166.383 26.2987 166.597 25.9147 166.597 25.424C166.597 24.9333 166.33 24.5493 165.797 24.272C165.285 23.9947 164.495 23.728 163.429 23.472C162.085 23.152 160.997 22.8107 160.165 22.448C159.333 22.0853 158.661 21.584 158.149 20.944C157.658 20.304 157.413 19.472 157.413 18.448C157.413 17.4027 157.679 16.4747 158.213 15.664C158.746 14.8533 159.503 14.224 160.485 13.776C161.466 13.3067 162.597 13.072 163.877 13.072C165.007 13.072 166.138 13.2533 167.269 13.616C168.399 13.9787 169.434 14.48 170.373 15.12L168.677 18.128C167.887 17.616 167.066 17.2107 166.213 16.912C165.381 16.592 164.602 16.432 163.877 16.432C163.237 16.432 162.703 16.5813 162.277 16.88C161.85 17.1573 161.637 17.52 161.637 17.968C161.637 18.3733 161.839 18.6827 162.245 18.896C162.671 19.1093 163.525 19.3867 164.805 19.728C166.042 20.048 167.077 20.3893 167.909 20.752C168.741 21.0933 169.434 21.616 169.989 22.32C170.565 23.0027 170.853 23.9093 170.853 25.04C170.853 26.6613 170.234 27.9627 168.997 28.944C167.781 29.904 166.149 30.384 164.101 30.384ZM195.089 18.96L203.153 30H197.553L192.273 22.8L186.993 30H181.489L189.553 19.056L181.489 8.016H187.089L192.369 15.216L197.649 8.016H203.153L195.089 18.96Z" fill="white"/>
</svg>
