<svg width="722" height="552" viewBox="0 0 722 552" fill="none" xmlns="http://www.w3.org/2000/svg">
<g clip-path="url(#clip0_41_16769)">
<g clip-path="url(#clip1_41_16769)">
<path d="M480.356 305.829H553.965V551.981H480.356V305.829Z" fill="#E09A2E"/>
<path d="M223.552 305.829H480.337V551.981H223.552V305.829Z" fill="#FFC531"/>
<path d="M509.057 305.829H530.521V353.419H509.057V305.829Z" fill="#FCD588"/>
<path d="M457.044 108.58H516.008V305.886H457.044V108.58Z" fill="#417DC6"/>
<path d="M251.395 108.58H457.063V305.886H251.395V108.58Z" fill="#BDDAFD"/>
<path d="M480.07 108.58H497.249V146.728H480.07V108.58Z" fill="#76B5FF"/>
<path d="M670.312 364.307H722V551.981H670.312V364.307Z" fill="#417DC6"/>
<path d="M490.012 364.307H670.312V551.981H490.012V364.307Z" fill="#BDDAFD"/>
<path d="M690.48 364.307H705.545V400.589H690.48V364.307Z" fill="#76B5FF"/>
<path d="M654.199 207.243H698.003V364.307H654.199V207.243Z" fill="#E09A2E"/>
<path d="M501.439 207.243H654.219V364.307H501.439V207.243Z" fill="#FFC531"/>
<path d="M671.302 207.243H684.062V237.605H671.302V207.243Z" fill="#FCD588"/>
<path d="M128.459 431.027H165.273V551.962H128.459V431.027Z" fill="#E09A2E"/>
<path d="M0.0190277 431.027H128.459V551.962H0.0190277V431.027Z" fill="#FFC531"/>
<path d="M142.8 431.027H153.542V454.403H142.8V431.027Z" fill="#FCD588"/>
<path d="M261.585 431.027H294.247V551.962H261.585V431.027Z" fill="#E09A2E"/>
<path d="M147.695 431.027H261.604V551.962H147.695V431.027Z" fill="#FFC531"/>
<path d="M274.326 431.027H283.848V454.403H274.326V431.027Z" fill="#FCD588"/>
<path d="M24.1873 349.173H221.552V431.027H24.1873V349.173Z" fill="#BDDAFD"/>
<path d="M221.552 349.173H261.432V431.027H221.552V349.173Z" fill="#417DC6"/>
<path d="M241.492 349.173H247.644V373.158H241.492V349.173Z" fill="#76B5FF"/>
<path d="M605.996 158.302C605.996 157.159 605.996 155.998 605.996 154.837C605.996 154.114 606.282 153.714 606.625 153.581C612.338 111.512 639.268 81.5493 663.513 64.1125C664.16 63.6366 665.131 64.7026 664.617 65.8067C658.904 78.1419 653.342 90.7817 648.391 103.878C643.971 116.279 640.233 128.913 637.192 141.721C632.279 160.871 622.413 177.433 607.882 176.995C607.348 176.995 606.987 176.367 606.949 175.586C606.949 173.207 606.739 170.846 606.587 168.467C606.587 169.476 606.453 170.485 606.415 171.512C606.377 172.54 605.558 172.369 605.539 171.512C605.45 167.104 605.602 162.694 605.996 158.302V158.302Z" fill="#3465AC"/>
<path d="M608.834 172.065C618.356 138.962 633.593 104.907 651.285 80.693C651.571 80.2933 651.99 80.9215 651.723 81.3593C634.079 110.264 620.331 141.371 610.834 173.873C610.205 175.891 608.243 174.102 608.834 172.065Z" fill="#12294D"/>
<path d="M579.181 11.2882C603.482 47.7607 611.234 100.756 608.015 150.992C608.015 151.106 608.015 151.163 608.015 151.277C608.291 156.631 607.797 161.997 606.549 167.21C606.539 167.273 606.539 167.338 606.549 167.401C606.546 167.459 606.531 167.517 606.505 167.569C606.479 167.622 606.442 167.668 606.396 167.705C604.987 171.95 602.454 174.615 598.036 173.416C588.208 170.903 585.999 156.874 585.58 143.739C584.913 122.419 585.066 101.175 583.885 79.8551C583.256 68.662 582.704 57.5451 582.361 46.314C581.999 34.3215 579.295 23.3759 578.552 11.5927C578.552 11.193 578.99 11.0026 579.181 11.2882Z" fill="#3465AC"/>
<path d="M595.331 102.298C594.129 77.8314 590.537 53.5406 584.609 29.7718C584.513 29.334 584.99 29.0104 585.123 29.4482C592.246 51.7582 595.674 75.8004 597.197 100.376C598.093 114.557 598.226 128.796 598.264 143.035C598.264 150.744 598.816 160.548 596.988 167.991C596.55 169.78 594.836 169.095 595.083 167.191C597.807 146.537 596.417 123.104 595.331 102.298Z" fill="#12294D"/>
<path d="M597.026 134.431C597.024 134.042 597.159 133.664 597.407 133.365C598.359 110.75 604.377 87.3551 610.32 67.7673C614.338 54.4423 619.023 41.7644 624.146 29.4673C628.869 18.1791 635.288 10.4315 641.116 0.647094C641.725 -0.399875 643.02 0.647097 642.658 2.01767C641.58 6.52765 640.257 10.9759 638.697 15.3427C636.669 22.4248 635.242 29.6649 634.431 36.9864C632.526 50.6922 629.841 64.1695 628.108 77.9705C625.098 101.803 624.299 126.512 617.728 149.069C615.29 157.616 607.786 174.425 600.264 165.916C594.664 159.577 596.493 143.32 597.026 134.431Z" fill="#76B5FF"/>
<path d="M602.568 165.516C605.463 155.275 605.635 143.13 607.806 132.413C610.167 120.725 613.043 109.323 615.424 97.6156C619.804 75.6102 622.432 53.0719 629.65 32.6274C629.784 32.2467 630.146 32.6274 630.031 32.951C622.794 56.0415 620.128 81.2639 615.214 105.535C612.852 117.165 610.11 128.663 608.148 140.465C606.682 149.26 606.606 158.568 604.339 166.963C603.711 168.657 602.092 167.191 602.568 165.516Z" fill="#12294D"/>
<path d="M536.748 47.6467C554.136 55.5085 567.658 74.5443 579.257 94.9126C588.431 111.396 593.304 129.922 593.427 148.784C593.427 148.784 593.427 148.784 593.427 148.879C593.903 158.816 594.226 173.093 585.808 174.159C577.391 175.225 572.02 165.421 569.201 154.761C565.506 140.865 564.802 125.541 562.002 111.226C557.393 87.8312 550.899 62.5517 536.196 49.6074C535.415 49.0744 535.891 47.304 536.748 47.6467Z" fill="#76B5FF"/>
<path d="M554.156 67.387C563.907 78.1042 569.544 94.7415 574.61 110.941C577.374 119.6 579.587 128.425 581.238 137.363C583.275 148.784 583.352 160.301 585.047 171.627C585.313 173.531 583.352 174.387 583.142 172.446C581.847 163.346 581.79 154 580.495 144.882C579.142 134.82 577.113 124.861 574.42 115.072C569.468 97.8062 563.411 80.2552 553.889 67.7868C553.889 67.5964 554.003 67.1967 554.156 67.387Z" fill="#12294D"/>
<path d="M570.191 207.243H633.402C636.702 207.245 639.969 206.598 643.018 205.337C646.067 204.076 648.837 202.226 651.171 199.894C653.504 197.562 655.354 194.793 656.615 191.746C657.877 188.699 658.525 185.433 658.522 182.135V182.135C658.522 178.838 657.873 175.574 656.61 172.529C655.347 169.484 653.497 166.717 651.164 164.387C648.831 162.057 646.062 160.209 643.014 158.95C639.966 157.69 636.7 157.043 633.402 157.045H570.191C563.532 157.045 557.146 159.688 552.435 164.393C547.725 169.097 545.076 175.479 545.071 182.135C545.071 188.794 547.718 195.18 552.429 199.889C557.14 204.597 563.529 207.243 570.191 207.243V207.243Z" fill="white"/>
<path d="M632.697 198.639C651.171 192.718 647.477 174.273 640.83 166.677H550.442C553.528 162.731 557.728 159.801 562.497 158.264H641.096C645.396 159.652 649.239 162.178 652.219 165.573L652.657 166.087C652.832 166.275 652.997 166.472 653.152 166.677V166.677C656.658 171.067 658.565 176.518 658.561 182.135C658.563 185.433 657.915 188.699 656.654 191.746C655.392 194.793 653.542 197.562 651.209 199.894C648.876 202.226 646.105 204.076 643.056 205.337C640.007 206.598 636.74 207.245 633.44 207.243H570.229C566.415 207.245 562.65 206.375 559.223 204.698C555.797 203.022 552.799 200.585 550.461 197.573C570.42 201.894 612.453 205.111 632.697 198.639Z" fill="#F3F6FF"/>
<path d="M558.669 162.832H644.925C647.772 162.827 650.501 161.694 652.514 159.682C654.528 157.67 655.661 154.942 655.666 152.096C655.661 149.252 654.527 146.526 652.513 144.517C650.499 142.507 647.77 141.379 644.925 141.379H558.669C555.825 141.379 553.098 142.508 551.087 144.518C549.076 146.528 547.947 149.254 547.947 152.096V152.096C547.947 154.94 549.076 157.668 551.086 159.681C553.096 161.694 555.824 162.827 558.669 162.832V162.832Z" fill="white"/>
<path d="M326.7 361.242C321.653 353.361 315.673 345.861 307.464 343.406C299.256 340.95 290.324 345.195 283.124 350.772C286.934 355.436 291.657 358.254 296.704 361.356C300.196 363.481 304.083 364.873 308.131 365.449C310.294 365.582 312.464 365.428 314.587 364.992C318.595 364.342 322.539 363.349 326.376 362.023" fill="#3465AC"/>
<path d="M363.133 400.171C363.133 400.171 341.65 394.251 331.88 425.831C331.88 425.831 359.629 426.821 363.133 400.171Z" fill="#3465AC"/>
<path d="M302.931 391.395C302.931 391.395 323.881 399.181 335.765 368.552C335.765 368.533 308.207 365.126 302.931 391.395Z" fill="#3465AC"/>
<path d="M334.47 368.076C334.47 368.076 350.849 350.944 333.766 323.856C333.766 323.856 317.387 349.669 334.47 368.076Z" fill="#3465AC"/>
<path d="M322.757 412.772C322.757 412.772 344.812 413.553 348.83 380.411C348.83 380.335 321.539 385.856 322.757 412.772Z" fill="#3465AC"/>
<path d="M373.836 423.604C373.836 423.604 354.468 411.402 337.822 438.832C337.822 438.927 364.371 448.274 373.836 423.604Z" fill="#3465AC"/>
<path d="M363.171 399.637C363.171 399.637 385.378 391.338 377.093 358.311C377.093 358.311 353.439 377.575 363.171 399.637Z" fill="#3465AC"/>
<path d="M348.202 379.669C348.202 379.669 367.609 370.969 358.715 341.597C358.638 341.616 338.431 360.29 348.202 379.669Z" fill="#3465AC"/>
<path d="M373.57 423.47C373.57 423.47 393.815 429.067 401.014 399.104C401.014 399.104 375.169 401.179 373.57 423.47Z" fill="#3465AC"/>
<path d="M380.578 445.057C371.056 401.883 350.754 375.9 319.348 357.035" stroke="#2A2C1E" stroke-linecap="round" stroke-linejoin="round"/>
<path d="M432.591 348.431C436.266 339.218 441.047 330.081 449.331 325.322C457.616 320.563 468.186 322.219 477.118 325.741C474.128 331.451 469.5 335.563 464.853 340.056C461.532 343.182 457.657 345.661 453.426 347.365C451.142 348.113 448.776 348.579 446.379 348.755C441.953 349.236 437.495 349.363 433.048 349.136" fill="#12294D"/>
<path d="M402.023 397.296C402.023 397.296 423.811 385.342 441.294 413.876C441.294 413.876 411.698 422.671 402.023 397.296Z" fill="#12294D"/>
<path d="M464.815 371.579C464.815 371.579 443.865 385.227 424.458 358.254C424.382 358.196 453.369 347.022 464.815 371.579Z" fill="#12294D"/>
<path d="M425.734 357.397C425.734 357.397 404.347 345.119 416.707 313.386C416.764 313.386 440.037 334.307 425.734 357.397Z" fill="#12294D"/>
<path d="M448.227 398.362C448.227 398.362 424.687 405.367 413.031 373.616C412.955 373.597 443.637 371.274 448.227 398.362Z" fill="#12294D"/>
<path d="M395.7 423.547C395.7 423.547 413.831 405.977 437.79 428.534C437.714 428.534 411.336 445.304 395.7 423.547Z" fill="#12294D"/>
<path d="M401.871 396.782C401.871 396.782 376.16 394.878 377.741 359.776C377.741 359.853 407.451 372.169 401.871 396.782Z" fill="#12294D"/>
<path d="M413.622 372.74C413.622 372.74 390.767 369.618 393.91 338.019C393.91 338.019 419.773 350.811 413.622 372.74Z" fill="#12294D"/>
<path d="M395.967 423.337C395.967 423.337 375.436 434.606 361.057 406.966C361.057 406.966 389.301 401.732 395.967 423.337Z" fill="#12294D"/>
<path d="M393.205 446.713C393.948 401.218 409.965 369.751 439.561 342.168" stroke="#2A2C1E" stroke-linecap="round" stroke-linejoin="round"/>
<path d="M381.054 320.791C387.263 310.95 392.672 299.985 391.72 288.126C390.767 276.266 382.33 266.158 373.227 258.963C369.894 265.797 368.961 273.278 367.856 281.197C367.108 286.814 367.327 292.519 368.504 298.062C369.289 300.958 370.388 303.76 371.779 306.419C374.21 311.401 376.991 316.203 380.102 320.791" fill="#76B5FF"/>
<path d="M382.483 341.578C382.483 341.578 380.712 310.683 342.736 308.818C342.755 308.818 352.277 346.375 382.483 341.578Z" fill="#76B5FF"/>
<path d="M382.711 340.284C382.711 340.284 411.108 345.633 421.659 306.419C421.659 306.419 385.435 307.599 382.711 340.284Z" fill="#76B5FF"/>
<path d="M383.13 369.466C383.13 369.466 410.784 378.26 425.449 340.608C425.449 340.608 389.32 337.353 383.13 369.466Z" fill="#76B5FF"/>
<path d="M382.864 393.717C382.864 393.717 407.87 409.137 430.229 376.128C430.229 376.128 395.814 364.003 382.864 393.717Z" fill="#76B5FF"/>
<path d="M381.721 415.532C381.721 415.532 397.338 441.554 431.238 423.28C431.315 423.28 405.927 395.506 381.721 415.532Z" fill="#76B5FF"/>
<path d="M383.13 370.113C383.13 370.113 380.274 341.064 345.135 343.729C345.135 343.729 358.638 376.985 383.13 370.113Z" fill="#76B5FF"/>
<path d="M382.483 395.507C382.483 395.507 374.294 367.658 340.355 377.785C340.374 377.785 359.781 407.537 382.483 395.507Z" fill="#76B5FF"/>
<path d="M382.235 416.656C382.235 416.656 367.228 392.309 337.194 412.068C337.194 412.068 363.438 434.949 382.235 416.656Z" fill="#76B5FF"/>
<path d="M379.302 452.367C384.235 398.345 384.044 343.977 378.731 289.991" stroke="#2A2C1E" stroke-linecap="round" stroke-linejoin="round"/>
<path d="M327.043 513.7C327.043 553.675 352.887 551.543 384.768 551.543C416.65 551.543 443.484 553.599 442.513 513.7C442.018 492.761 416.669 475.857 384.768 475.857C352.868 475.857 327.043 492.799 327.043 513.7Z" fill="white"/>
<path d="M330.014 533.078C347.154 541.416 389.51 544.633 415.012 539.874C432.781 536.543 438.533 518.516 440.494 504.22C441.736 507.245 442.42 510.47 442.513 513.738C443.484 553.713 416.669 551.581 384.768 551.581C359.305 551.543 337.689 552.838 330.014 533.078Z" fill="#F3F6FF"/>
<path d="M365.628 439.594H403.966V500.394H365.628V439.594Z" fill="white"/>
<path d="M365.628 449.473H403.966V462.284H365.628V449.473Z" fill="#F3F6FF"/>
<path d="M366.638 449.454H402.614C404.664 449.454 406.631 448.64 408.081 447.191C409.531 445.741 410.346 443.775 410.346 441.726V441.726C410.346 439.676 409.531 437.71 408.081 436.261C406.631 434.811 404.664 433.997 402.614 433.997H366.638C364.587 433.997 362.62 434.811 361.17 436.261C359.72 437.71 358.905 439.676 358.905 441.726C358.905 443.775 359.72 445.741 361.17 447.191C362.62 448.64 364.587 449.454 366.638 449.454Z" fill="white"/>
</g>
</g>
<defs>
<clipPath id="clip0_41_16769">
<rect width="722" height="552" fill="white"/>
</clipPath>
<clipPath id="clip1_41_16769">
<rect width="722" height="552" fill="white" transform="matrix(-1 0 0 1 722 0)"/>
</clipPath>
</defs>
</svg>
