<svg width="72" height="73" viewBox="0 0 72 73" fill="none" xmlns="http://www.w3.org/2000/svg">
<rect y="0.360474" width="72" height="72" rx="16" fill="#BDDAFD"/>
<path opacity="0.35" d="M35.9472 37.413C41.7607 37.413 46.4735 32.7002 46.4735 26.8867C46.4735 21.0731 41.7607 16.3604 35.9472 16.3604C30.1337 16.3604 25.4209 21.0731 25.4209 26.8867C25.4209 32.7002 30.1337 37.413 35.9472 37.413Z" fill="#12294D"/>
<path d="M48.5789 43.7288H23.3158C19.8274 43.7288 17 46.5561 17 50.0446C17 53.533 19.8274 56.3604 23.3158 56.3604H48.5789C52.0674 56.3604 54.8947 53.533 54.8947 50.0446C54.8947 46.5561 52.0674 43.7288 48.5789 43.7288Z" fill="#12294D"/>
</svg>
