<svg width="60" height="60" viewBox="0 0 60 60" fill="none" xmlns="http://www.w3.org/2000/svg">
<path d="M23.9746 26.4624H17.9746V20.4624" stroke="white" stroke-width="1.5" stroke-linecap="round" stroke-linejoin="round"/>
<path d="M37.7746 22.2248C36.7541 21.2028 35.5422 20.3921 34.208 19.8389C32.8739 19.2857 31.4439 19.001 29.9996 19.001C28.5554 19.001 27.1253 19.2857 25.7912 19.8389C24.4571 20.3921 23.2451 21.2028 22.2246 22.2248L17.9746 26.4623" stroke="white" stroke-width="1.5" stroke-linecap="round" stroke-linejoin="round"/>
<path d="M36.0244 33.5376H42.0244V39.5376" stroke="white" stroke-width="1.5" stroke-linecap="round" stroke-linejoin="round"/>
<path d="M22.2246 37.7751C23.2451 38.7971 24.4571 39.6078 25.7912 40.161C27.1253 40.7142 28.5554 40.9989 29.9996 40.9989C31.4439 40.9989 32.8739 40.7142 34.208 40.161C35.5422 39.6078 36.7541 38.7971 37.7746 37.7751L42.0246 33.5376" stroke="white" stroke-width="1.5" stroke-linecap="round" stroke-linejoin="round"/>
</svg>
