<svg width="60" height="60" viewBox="0 0 60 60" fill="none" xmlns="http://www.w3.org/2000/svg">
<path d="M41.1758 23.2896H19.1758C18.6235 23.2896 18.1758 23.7373 18.1758 24.2896V40.2896C18.1758 40.8418 18.6235 41.2896 19.1758 41.2896H41.1758C41.7281 41.2896 42.1758 40.8418 42.1758 40.2896V24.2896C42.1758 23.7373 41.7281 23.2896 41.1758 23.2896Z" stroke="white" stroke-width="1.5" stroke-linecap="round" stroke-linejoin="round"/>
<path d="M25.1758 27.2896V23.2896C25.1758 21.9635 25.7026 20.6917 26.6402 19.754C27.5779 18.8163 28.8497 18.2896 30.1758 18.2896C31.5019 18.2896 32.7736 18.8163 33.7113 19.754C34.649 20.6917 35.1758 21.9635 35.1758 23.2896V27.2896" stroke="white" stroke-width="1.5" stroke-linecap="round" stroke-linejoin="round"/>
</svg>
