<svg width="60" height="60" viewBox="0 0 60 60" fill="none" xmlns="http://www.w3.org/2000/svg">
<path d="M41 40.9993V28.4368C40.9978 28.2984 40.9679 28.1619 40.912 28.0352C40.8562 27.9085 40.7756 27.7943 40.675 27.6993L30.675 18.6118C30.4907 18.4431 30.2499 18.3496 30 18.3496C29.7501 18.3496 29.5093 18.4431 29.325 18.6118L19.325 27.6993C19.2244 27.7943 19.1438 27.9085 19.088 28.0352C19.0321 28.1619 19.0022 28.2984 19 28.4368V40.9993" stroke="white" stroke-width="1.5" stroke-linecap="round" stroke-linejoin="round"/>
<path d="M16 40.9995H44" stroke="white" stroke-width="1.5" stroke-linecap="round" stroke-linejoin="round"/>
<path d="M33 40.9995V33.9995C33 33.7343 32.8946 33.4799 32.7071 33.2924C32.5196 33.1049 32.2652 32.9995 32 32.9995H28C27.7348 32.9995 27.4804 33.1049 27.2929 33.2924C27.1054 33.4799 27 33.7343 27 33.9995V40.9995" stroke="white" stroke-width="1.5" stroke-linecap="round" stroke-linejoin="round"/>
</svg>
