<svg width="72" height="73" viewBox="0 0 72 73" fill="none" xmlns="http://www.w3.org/2000/svg">
<rect y="0.360474" width="72" height="72" rx="16" fill="#BDDAFD"/>
<path opacity="0.35" d="M48.9477 56.3939H23.0524C19.4767 56.3939 16.5786 53.4958 16.5786 49.9201V29.9916C16.5786 27.6394 17.854 25.475 19.9083 24.3335L32.8559 17.1411C34.811 16.0556 37.1891 16.0556 39.1442 17.1411L52.0918 24.3335C54.1461 25.475 55.4215 27.6416 55.4215 29.9916V49.9201C55.4215 53.4958 52.5234 56.3939 48.9477 56.3939Z" fill="#12294D"/>
<path d="M42.474 56.394H29.5264V43.4463C29.5264 41.0618 31.4577 39.1305 33.8422 39.1305H38.1581C40.5426 39.1305 42.474 41.0618 42.474 43.4463V56.394Z" fill="#12294D"/>
</svg>
