<svg width="72" height="73" viewBox="0 0 72 73" fill="none" xmlns="http://www.w3.org/2000/svg">
<rect y="0.360474" width="72" height="72" rx="16" fill="#BDDAFD"/>
<path d="M35.9999 55.2311C38.6054 55.2311 40.7176 53.1189 40.7176 50.5134C40.7176 47.9079 38.6054 45.7958 35.9999 45.7958C33.3944 45.7958 31.2822 47.9079 31.2822 50.5134C31.2822 53.1189 33.3944 55.2311 35.9999 55.2311Z" fill="#12294D"/>
<path opacity="0.35" d="M47.7942 59.9488H24.2059C20.2973 59.9488 17.1294 56.7809 17.1294 52.8723V19.8486C17.1294 15.9401 20.2973 12.7722 24.2059 12.7722H47.7942C51.7028 12.7722 54.8707 15.9401 54.8707 19.8486V52.8723C54.8707 56.7809 51.7028 59.9488 47.7942 59.9488Z" fill="#12294D"/>
<path d="M45.4355 26.9251H26.5649C25.2628 26.9251 24.2061 25.8684 24.2061 24.5663V22.2075C24.2061 20.9054 25.2628 19.8486 26.5649 19.8486H45.4355C46.7376 19.8486 47.7944 20.9054 47.7944 22.2075V24.5663C47.7944 25.8684 46.7376 26.9251 45.4355 26.9251Z" fill="#12294D"/>
<path d="M45.4355 38.7193H26.5649C25.2628 38.7193 24.2061 37.6625 24.2061 36.3605V34.0016C24.2061 32.6995 25.2628 31.6428 26.5649 31.6428H45.4355C46.7376 31.6428 47.7944 32.6995 47.7944 34.0016V36.3605C47.7944 37.6625 46.7376 38.7193 45.4355 38.7193Z" fill="#12294D"/>
</svg>
