<svg width="72" height="73" viewBox="0 0 72 73" fill="none" xmlns="http://www.w3.org/2000/svg">
<rect y="0.360474" width="72" height="72" rx="16" fill="#BDDAFD"/>
<path d="M44.6654 52.3391L35.1718 42.8455L45.0713 32.946L48.9929 49.9406C49.1923 50.8047 48.9321 51.7126 48.3056 52.3391C47.3001 53.3446 45.6709 53.3446 44.6654 52.3391Z" fill="#12294D"/>
<path d="M29.0863 53.7307L26.6864 51.3308L32.3433 45.6739L33.4845 51.3774C33.6542 52.2316 33.3884 53.1141 32.7718 53.7307C31.7535 54.7489 30.1046 54.7489 29.0863 53.7307Z" fill="#12294D"/>
<path d="M20.0212 27.695L29.5148 37.1886L39.4143 27.2891L22.4197 23.3675C21.5556 23.1681 20.6477 23.4283 20.0212 24.0548C19.0157 25.0603 19.0157 26.6895 20.0212 27.695Z" fill="#12294D"/>
<path d="M18.6297 43.274L21.0296 45.6739L26.6865 40.0171L20.983 38.8758C20.1288 38.7061 19.2449 38.9734 18.6297 39.5885C17.6115 40.6068 17.6115 42.2558 18.6297 43.274Z" fill="#12294D"/>
<path opacity="0.35" d="M52.1419 25.8749C53.7046 24.3122 53.7046 21.7808 52.1419 20.2181C50.5792 18.6554 48.0478 18.6554 46.485 20.2181C45.6351 21.068 21.0292 45.6739 21.0292 45.6739L26.6861 51.3308C26.6861 51.3308 51.292 26.7249 52.1419 25.8749Z" fill="#12294D"/>
</svg>
